<mxfile host="Electron" modified="2023-12-11T13:48:31.010Z" agent="Mozilla/5.0 (X11; Linux x86_64) AppleWebKit/537.36 (KHTML, like Gecko) draw.io/22.1.2 Chrome/114.0.5735.289 Electron/25.9.4 Safari/537.36" etag="QvrQ7J8BhFmcuONPsvYo" version="22.1.2" type="device">
  <diagram name="Page-1" id="cdRQ526Jkao1qlJUCw19">
    <mxGraphModel dx="1364" dy="843" grid="1" gridSize="10" guides="1" tooltips="1" connect="1" arrows="1" fold="1" page="1" pageScale="1" pageWidth="827" pageHeight="1169" math="0" shadow="0">
      <root>
        <mxCell id="0" />
        <mxCell id="1" parent="0" />
        <mxCell id="4VQpeNJrzAtvyB_kZWIC-1" value="User" style="shape=umlActor;verticalLabelPosition=bottom;verticalAlign=top;html=1;outlineConnect=0;" parent="1" vertex="1">
          <mxGeometry x="50" y="426" width="80" height="150" as="geometry" />
        </mxCell>
        <mxCell id="4VQpeNJrzAtvyB_kZWIC-5" value="" style="rounded=0;whiteSpace=wrap;html=1;" parent="1" vertex="1">
          <mxGeometry x="228" y="266" width="371" height="414" as="geometry" />
        </mxCell>
        <mxCell id="4VQpeNJrzAtvyB_kZWIC-6" value="&lt;font style=&quot;font-size: 16px;&quot;&gt;&lt;b&gt;Eye Health Management Application - Login/Register&lt;br&gt;&lt;/b&gt;&lt;/font&gt;" style="text;html=1;strokeColor=none;fillColor=none;align=center;verticalAlign=middle;whiteSpace=wrap;rounded=0;" parent="1" vertex="1">
          <mxGeometry x="279" y="276" width="280" height="40" as="geometry" />
        </mxCell>
        <mxCell id="BrQOBhn-TSS67xyMG39H-1" value="Create an account" style="ellipse;whiteSpace=wrap;html=1;" parent="1" vertex="1">
          <mxGeometry x="269" y="376" width="90" height="40" as="geometry" />
        </mxCell>
        <mxCell id="BrQOBhn-TSS67xyMG39H-2" value="Login" style="ellipse;whiteSpace=wrap;html=1;" parent="1" vertex="1">
          <mxGeometry x="274" y="586" width="80" height="35" as="geometry" />
        </mxCell>
        <mxCell id="BrQOBhn-TSS67xyMG39H-3" value="Validate User&#39;s Credentials" style="ellipse;whiteSpace=wrap;html=1;" parent="1" vertex="1">
          <mxGeometry x="399" y="476" width="110" height="50" as="geometry" />
        </mxCell>
        <mxCell id="BrQOBhn-TSS67xyMG39H-4" value="&amp;lt;&amp;lt;include&amp;gt;&amp;gt;" style="html=1;verticalAlign=bottom;labelBackgroundColor=none;endArrow=open;endFill=0;dashed=1;rounded=0;entryX=0.5;entryY=1;entryDx=0;entryDy=0;" parent="1" source="BrQOBhn-TSS67xyMG39H-2" target="BrQOBhn-TSS67xyMG39H-3" edge="1">
          <mxGeometry width="160" relative="1" as="geometry">
            <mxPoint x="379" y="621" as="sourcePoint" />
            <mxPoint x="539" y="621" as="targetPoint" />
          </mxGeometry>
        </mxCell>
        <mxCell id="BrQOBhn-TSS67xyMG39H-5" value="&amp;lt;&amp;lt;include&amp;gt;&amp;gt;" style="html=1;verticalAlign=bottom;labelBackgroundColor=none;endArrow=open;endFill=0;dashed=1;rounded=0;exitX=0.5;exitY=1;exitDx=0;exitDy=0;entryX=0.5;entryY=0;entryDx=0;entryDy=0;" parent="1" source="BrQOBhn-TSS67xyMG39H-1" target="BrQOBhn-TSS67xyMG39H-3" edge="1">
          <mxGeometry width="160" relative="1" as="geometry">
            <mxPoint x="289" y="616" as="sourcePoint" />
            <mxPoint x="449" y="616" as="targetPoint" />
          </mxGeometry>
        </mxCell>
        <mxCell id="BrQOBhn-TSS67xyMG39H-6" value="" style="endArrow=none;html=1;rounded=0;exitX=1;exitY=0.3333333333333333;exitDx=0;exitDy=0;exitPerimeter=0;entryX=0;entryY=0.5;entryDx=0;entryDy=0;" parent="1" source="4VQpeNJrzAtvyB_kZWIC-1" target="BrQOBhn-TSS67xyMG39H-1" edge="1">
          <mxGeometry width="50" height="50" relative="1" as="geometry">
            <mxPoint x="190" y="396" as="sourcePoint" />
            <mxPoint x="240" y="346" as="targetPoint" />
          </mxGeometry>
        </mxCell>
        <mxCell id="BrQOBhn-TSS67xyMG39H-7" value="" style="endArrow=none;html=1;rounded=0;exitX=1;exitY=0.3333333333333333;exitDx=0;exitDy=0;exitPerimeter=0;entryX=0;entryY=0.5;entryDx=0;entryDy=0;" parent="1" source="4VQpeNJrzAtvyB_kZWIC-1" target="BrQOBhn-TSS67xyMG39H-2" edge="1">
          <mxGeometry width="50" height="50" relative="1" as="geometry">
            <mxPoint x="350" y="506" as="sourcePoint" />
            <mxPoint x="400" y="456" as="targetPoint" />
          </mxGeometry>
        </mxCell>
        <mxCell id="BrQOBhn-TSS67xyMG39H-8" value="Email/SMS verification" style="ellipse;whiteSpace=wrap;html=1;" parent="1" vertex="1">
          <mxGeometry x="419" y="336" width="90" height="40" as="geometry" />
        </mxCell>
        <mxCell id="BrQOBhn-TSS67xyMG39H-9" value="&amp;lt;&amp;lt;extend&amp;gt;&amp;gt;" style="html=1;verticalAlign=bottom;labelBackgroundColor=none;endArrow=open;endFill=0;dashed=1;rounded=0;entryX=0;entryY=0.5;entryDx=0;entryDy=0;" parent="1" source="BrQOBhn-TSS67xyMG39H-1" target="BrQOBhn-TSS67xyMG39H-8" edge="1">
          <mxGeometry width="160" relative="1" as="geometry">
            <mxPoint x="319" y="216" as="sourcePoint" />
            <mxPoint x="319" y="216" as="targetPoint" />
          </mxGeometry>
        </mxCell>
        <mxCell id="BrQOBhn-TSS67xyMG39H-10" value="Robot verification" style="ellipse;whiteSpace=wrap;html=1;" parent="1" vertex="1">
          <mxGeometry x="259" y="486" width="110" height="60" as="geometry" />
        </mxCell>
        <mxCell id="BrQOBhn-TSS67xyMG39H-11" value="&amp;lt;&amp;lt;extend&amp;gt;&amp;gt;" style="html=1;verticalAlign=bottom;labelBackgroundColor=none;endArrow=open;endFill=0;dashed=1;rounded=0;exitX=0.5;exitY=0;exitDx=0;exitDy=0;entryX=0.5;entryY=1;entryDx=0;entryDy=0;" parent="1" source="BrQOBhn-TSS67xyMG39H-2" target="BrQOBhn-TSS67xyMG39H-10" edge="1">
          <mxGeometry width="160" relative="1" as="geometry">
            <mxPoint x="339" y="606" as="sourcePoint" />
            <mxPoint x="499" y="606" as="targetPoint" />
          </mxGeometry>
        </mxCell>
        <mxCell id="BrQOBhn-TSS67xyMG39H-12" value="&amp;lt;&amp;lt;extend&amp;gt;&amp;gt;" style="html=1;verticalAlign=bottom;labelBackgroundColor=none;endArrow=open;endFill=0;dashed=1;rounded=0;exitX=0.5;exitY=1;exitDx=0;exitDy=0;" parent="1" source="BrQOBhn-TSS67xyMG39H-1" target="BrQOBhn-TSS67xyMG39H-10" edge="1">
          <mxGeometry width="160" relative="1" as="geometry">
            <mxPoint x="339" y="416" as="sourcePoint" />
            <mxPoint x="499" y="416" as="targetPoint" />
          </mxGeometry>
        </mxCell>
        <mxCell id="BrQOBhn-TSS67xyMG39H-27" value="Database" style="shape=umlActor;verticalLabelPosition=bottom;verticalAlign=top;html=1;outlineConnect=0;" parent="1" vertex="1">
          <mxGeometry x="700" y="206" width="80" height="150" as="geometry" />
        </mxCell>
        <mxCell id="BrQOBhn-TSS67xyMG39H-32" value="" style="endArrow=none;html=1;rounded=0;exitX=1;exitY=0.5;exitDx=0;exitDy=0;entryX=0;entryY=0.3333333333333333;entryDx=0;entryDy=0;entryPerimeter=0;" parent="1" source="BrQOBhn-TSS67xyMG39H-3" target="BrQOBhn-TSS67xyMG39H-27" edge="1">
          <mxGeometry width="50" height="50" relative="1" as="geometry">
            <mxPoint x="720" y="606" as="sourcePoint" />
            <mxPoint x="770" y="556" as="targetPoint" />
          </mxGeometry>
        </mxCell>
        <mxCell id="BrQOBhn-TSS67xyMG39H-34" value="App Service" style="shape=umlActor;verticalLabelPosition=bottom;verticalAlign=top;html=1;outlineConnect=0;" parent="1" vertex="1">
          <mxGeometry x="700" y="439" width="80" height="150" as="geometry" />
        </mxCell>
        <mxCell id="BrQOBhn-TSS67xyMG39H-35" value="" style="endArrow=none;html=1;rounded=0;entryX=0;entryY=0.3333333333333333;entryDx=0;entryDy=0;entryPerimeter=0;exitX=1;exitY=0.5;exitDx=0;exitDy=0;" parent="1" source="BrQOBhn-TSS67xyMG39H-8" target="BrQOBhn-TSS67xyMG39H-34" edge="1">
          <mxGeometry width="50" height="50" relative="1" as="geometry">
            <mxPoint x="350" y="416" as="sourcePoint" />
            <mxPoint x="400" y="366" as="targetPoint" />
          </mxGeometry>
        </mxCell>
        <mxCell id="BrQOBhn-TSS67xyMG39H-41" value="Two-Factor Authentication" style="ellipse;whiteSpace=wrap;html=1;" parent="1" vertex="1">
          <mxGeometry x="429" y="560" width="110" height="49" as="geometry" />
        </mxCell>
        <mxCell id="BrQOBhn-TSS67xyMG39H-43" value="&amp;lt;&amp;lt;extend&amp;gt;&amp;gt;" style="html=1;verticalAlign=bottom;labelBackgroundColor=none;endArrow=open;endFill=0;dashed=1;rounded=0;exitX=1;exitY=0.5;exitDx=0;exitDy=0;entryX=0;entryY=0.5;entryDx=0;entryDy=0;" parent="1" source="BrQOBhn-TSS67xyMG39H-2" target="BrQOBhn-TSS67xyMG39H-41" edge="1">
          <mxGeometry width="160" relative="1" as="geometry">
            <mxPoint x="389" y="640" as="sourcePoint" />
            <mxPoint x="549" y="640" as="targetPoint" />
          </mxGeometry>
        </mxCell>
        <mxCell id="BrQOBhn-TSS67xyMG39H-44" value="Third Party Authentication Service" style="shape=umlActor;verticalLabelPosition=bottom;verticalAlign=top;html=1;outlineConnect=0;" parent="1" vertex="1">
          <mxGeometry x="680" y="680" width="75" height="149" as="geometry" />
        </mxCell>
        <mxCell id="BrQOBhn-TSS67xyMG39H-45" value="" style="endArrow=none;html=1;rounded=0;entryX=0;entryY=0.3333333333333333;entryDx=0;entryDy=0;entryPerimeter=0;exitX=1;exitY=0.5;exitDx=0;exitDy=0;" parent="1" source="BrQOBhn-TSS67xyMG39H-41" target="BrQOBhn-TSS67xyMG39H-44" edge="1">
          <mxGeometry width="50" height="50" relative="1" as="geometry">
            <mxPoint x="640" y="760" as="sourcePoint" />
            <mxPoint x="690" y="710" as="targetPoint" />
          </mxGeometry>
        </mxCell>
      </root>
    </mxGraphModel>
  </diagram>
</mxfile>
